<?xml version="1.0" standalone="no"?>
<!DOCTYPE svg PUBLIC "-//W3C//DTD SVG 20010904//EN"
 "http://www.w3.org/TR/2001/REC-SVG-20010904/DTD/svg10.dtd">
<svg version="1.0" xmlns="http://www.w3.org/2000/svg"
 width="592.000000pt" height="530.000000pt" viewBox="0 0 592.000000 530.000000"
 preserveAspectRatio="xMidYMid meet">

<g transform="translate(0.000000,530.000000) scale(0.100000,-0.100000)"
fill="#000000" stroke="none">
<path d="M2911 4821 c-12 -16 -21 -32 -21 -36 0 -3 -33 -61 -73 -128 -41 -67
-106 -178 -147 -247 -40 -69 -143 -244 -230 -390 -87 -146 -197 -332 -245
-415 -95 -163 -221 -376 -323 -550 -36 -60 -118 -202 -182 -315 -65 -113 -157
-272 -205 -355 -91 -157 -411 -713 -475 -825 -20 -36 -78 -137 -129 -225 -179
-306 -239 -410 -282 -485 -23 -41 -62 -109 -86 -150 -25 -41 -47 -87 -50 -102
-5 -28 -5 -28 48 -27 55 1 56 2 7 13 -16 4 -28 13 -28 21 0 14 150 279 360
635 53 91 157 271 230 400 73 129 153 268 177 308 25 41 47 81 51 90 4 10 39
71 78 137 38 66 124 212 189 325 65 113 153 264 195 335 43 72 150 256 240
410 144 247 216 369 488 830 35 61 73 124 84 140 10 17 73 122 138 235 209
358 205 354 244 309 17 -20 73 -114 171 -288 6 -10 22 -36 36 -57 14 -22 52
-86 84 -144 32 -58 77 -136 100 -175 23 -38 67 -115 99 -170 31 -55 61 -107
66 -115 5 -8 62 -107 126 -220 64 -113 149 -261 189 -330 241 -414 307 -528
483 -835 107 -187 218 -380 247 -430 29 -49 66 -115 83 -145 34 -62 365 -642
420 -735 19 -33 47 -82 62 -110 15 -27 58 -104 96 -170 121 -214 131 -234 116
-244 -8 -5 -1042 -8 -2298 -8 -1256 0 -2287 -3 -2291 -6 -3 -4 128 -7 293 -7
164 0 603 -2 974 -5 1276 -8 3363 -6 3373 4 9 9 -19 62 -218 406 -76 133 -166
289 -275 480 -167 294 -422 735 -506 875 -34 58 -96 166 -138 240 -42 74 -81
142 -86 150 -5 8 -64 110 -130 225 -67 116 -125 217 -130 225 -6 8 -41 69 -78
135 -38 66 -149 260 -247 430 -98 171 -197 344 -220 385 -23 41 -67 118 -97
170 -30 52 -68 118 -83 145 -29 53 -147 263 -199 354 -17 30 -36 56 -43 58 -6
2 -20 -9 -32 -26z"/>
<path d="M2891 4628 c-18 -43 -144 -263 -258 -453 -73 -121 -268 -452 -348
-590 -32 -55 -68 -116 -80 -135 -13 -19 -58 -96 -100 -170 -82 -141 -200 -346
-300 -515 -84 -144 -265 -458 -358 -620 -44 -77 -130 -228 -192 -335 -62 -107
-155 -269 -207 -360 -53 -91 -144 -248 -203 -350 -59 -102 -117 -203 -129
-225 -12 -22 -41 -73 -65 -112 -24 -40 -41 -79 -38 -87 5 -13 301 -15 2286
-15 1444 -1 2289 3 2306 9 14 5 25 15 25 21 0 11 -30 65 -200 354 -149 253
-359 617 -526 910 -81 143 -210 367 -287 499 -76 131 -150 259 -165 285 -14
25 -62 109 -107 186 -45 77 -136 235 -202 350 -137 239 -421 731 -508 880 -32
55 -63 109 -69 120 -142 260 -225 395 -242 395 -8 0 -23 -19 -33 -42z m66
-101 c11 -17 56 -93 98 -167 42 -74 80 -139 85 -145 4 -5 26 -46 50 -90 24
-44 68 -123 98 -175 30 -52 72 -124 92 -160 20 -36 78 -135 127 -220 49 -85
145 -252 213 -370 68 -118 151 -262 185 -320 187 -317 454 -777 640 -1105 81
-143 185 -323 230 -400 45 -77 93 -160 107 -185 14 -25 63 -110 110 -190 120
-205 141 -247 135 -263 -4 -12 -61 -16 -314 -21 -379 -9 -4038 -5 -4073 4 -48
12 -56 -5 210 450 37 63 137 237 220 385 214 378 592 1030 828 1430 52 88 136
232 187 320 134 234 306 528 315 540 4 6 48 80 98 165 49 85 110 189 135 230
24 41 77 130 116 198 40 67 75 122 79 122 4 0 17 -15 29 -33z"/>
<path d="M2870 4338 c-29 -51 -74 -127 -98 -168 -25 -41 -60 -100 -77 -130
-18 -30 -58 -98 -90 -150 -32 -52 -84 -140 -116 -195 -31 -55 -100 -174 -154
-265 -215 -364 -501 -856 -629 -1082 -12 -20 -70 -121 -130 -225 -158 -273
-294 -509 -336 -583 -20 -36 -53 -92 -72 -125 -20 -33 -60 -103 -90 -155 -30
-52 -100 -171 -156 -265 -56 -93 -102 -177 -102 -187 0 -22 43 -30 125 -24 33
2 84 5 113 5 28 1 52 6 52 11 0 6 -13 10 -30 10 -16 0 -30 4 -30 9 0 5 50 34
112 66 62 32 135 72 163 90 73 47 91 51 112 23 45 -57 110 -113 162 -136 148
-69 346 -21 431 104 28 40 34 59 38 119 4 61 1 79 -20 121 -34 70 -76 130
-104 149 -42 27 -30 52 78 162 l103 104 357 -3 c196 -2 359 -5 361 -8 3 -3 8
-106 12 -230 l7 -225 -36 -44 c-49 -58 -46 -110 7 -153 18 -14 21 -26 19 -79
-2 -35 -5 -65 -8 -68 -2 -3 -335 -5 -739 -6 -403 0 -737 -4 -741 -8 -7 -7 413
-9 2483 -11 l1143 -1 0 25 c0 14 -45 101 -101 195 -55 93 -113 192 -128 220
-16 27 -44 77 -63 110 -50 87 -208 368 -253 450 -21 39 -84 149 -140 245 -56
96 -113 195 -127 220 -14 25 -133 234 -265 465 -317 554 -487 855 -561 992
-33 61 -73 131 -88 155 -15 23 -94 160 -176 303 -82 143 -152 261 -157 263 -4
1 -32 -39 -61 -90z m88 5 c17 -25 130 -220 207 -358 15 -27 34 -59 41 -70 35
-50 -1 -188 -68 -261 -55 -60 -136 -98 -205 -97 -139 3 -283 139 -299 281 -6
44 -2 54 63 162 105 175 185 312 201 343 7 15 20 27 27 27 8 0 22 -12 33 -27z
m-360 -702 c48 -79 105 -137 175 -182 57 -37 56 -37 22 -209 -42 -206 -77
-319 -174 -563 -57 -141 -175 -383 -229 -467 -19 -30 -55 -86 -80 -125 -109
-170 -290 -393 -309 -382 -6 4 -14 26 -18 50 -16 93 -87 196 -152 218 -21 6
-64 9 -103 7 -163 -12 -281 -143 -267 -298 8 -94 74 -192 174 -262 24 -16 43
-35 43 -43 0 -14 -88 -93 -185 -166 -125 -94 -322 -214 -476 -289 -100 -49
-129 -58 -129 -42 0 7 108 202 139 252 32 51 113 191 211 365 62 110 121 214
132 230 16 26 359 614 410 705 25 43 129 221 261 445 235 400 314 535 382 655
67 117 104 170 118 170 7 0 32 -31 55 -69z m770 -13 c27 -46 116 -200 197
-343 198 -348 189 -333 220 -390 15 -27 42 -75 60 -105 100 -171 254 -438 280
-485 12 -22 72 -129 133 -237 62 -108 112 -199 112 -202 0 -3 20 -36 44 -73
23 -37 92 -156 151 -263 60 -107 148 -263 197 -347 101 -174 134 -240 126
-248 -7 -7 -195 86 -278 137 -175 107 -429 293 -430 315 0 6 26 32 58 57 61
49 97 90 128 146 15 28 19 55 18 130 0 115 -12 141 -89 204 -101 82 -202 103
-288 60 -63 -32 -142 -138 -161 -216 -13 -55 -17 -51 -217 202 -224 282 -387
573 -510 908 -69 187 -148 495 -135 528 3 7 34 27 70 43 36 16 81 42 101 56
37 29 135 167 135 191 0 36 33 7 78 -68z m-403 -668 c141 -429 331 -790 579
-1100 42 -52 76 -100 76 -106 0 -6 -21 -14 -48 -17 -65 -8 -1291 3 -1314 12
-17 6 -11 18 48 96 177 234 322 486 412 715 39 98 138 402 151 461 15 67 31
104 40 93 4 -5 29 -74 56 -154z m-1143 -1096 c15 -8 39 -35 54 -60 23 -40 27
-58 28 -129 1 -93 -8 -113 -77 -168 -33 -27 -39 -29 -66 -17 -17 7 -60 40 -95
74 -61 58 -65 64 -71 118 -9 73 -2 99 36 142 51 59 123 74 191 40z m2358 -10
c72 -61 88 -148 43 -241 -31 -62 -104 -133 -138 -133 -15 0 -43 22 -84 67 -60
66 -61 68 -61 125 0 80 33 164 74 189 48 29 126 26 166 -7z m-327 -344 l102
-102 -25 -16 c-56 -36 -128 -118 -139 -157 -20 -71 -14 -138 18 -206 65 -137
124 -179 261 -187 75 -4 93 -1 148 21 81 33 133 75 172 138 20 33 36 49 45 45
8 -3 56 -32 107 -64 51 -33 135 -80 186 -106 50 -25 92 -51 92 -56 0 -7 -316
-10 -910 -10 l-910 0 0 62 c0 59 2 63 40 98 56 52 50 101 -20 158 -25 20 -25
21 -30 229 -3 114 -3 218 -1 230 3 20 10 23 75 26 39 2 210 3 379 2 l309 -2
101 -103z m297 -258 c47 -37 105 -81 130 -98 25 -16 46 -37 48 -45 5 -29 -61
-102 -120 -133 -161 -82 -298 -6 -298 165 0 70 20 112 73 154 50 39 73 33 167
-43z m-2271 3 c65 -69 84 -112 75 -171 -9 -60 -40 -104 -94 -132 -39 -20 -55
-23 -114 -18 -87 6 -151 38 -193 94 -18 24 -33 49 -33 56 0 7 21 28 48 46 74
52 153 112 196 147 22 18 45 33 51 33 7 0 35 -25 64 -55z"/>
<path d="M2835 2506 c-74 -32 -167 -178 -187 -294 -10 -60 -9 -82 5 -149 33
-150 95 -232 206 -274 100 -37 220 -5 287 76 43 53 55 85 64 175 17 160 -29
298 -131 395 -32 31 -74 62 -93 70 -43 18 -111 19 -151 1z m146 -122 c44 -22
99 -94 115 -152 19 -66 21 -172 5 -232 -15 -51 -73 -115 -114 -125 -40 -10
-88 2 -141 35 -63 40 -95 110 -103 225 -5 74 -3 88 19 137 29 62 86 124 120
131 29 5 65 -2 99 -19z"/>
<path d="M1173 793 c9 -2 25 -2 35 0 9 3 1 5 -18 5 -19 0 -27 -2 -17 -5z"/>
<path d="M1258 793 c12 -2 30 -2 40 0 9 3 -1 5 -23 4 -22 0 -30 -2 -17 -4z"/>
<path d="M653 573 c15 -2 39 -2 55 0 15 2 2 4 -28 4 -30 0 -43 -2 -27 -4z"/>
</g>
</svg>
