<?xml version="1.0" standalone="no"?>
<!DOCTYPE svg PUBLIC "-//W3C//DTD SVG 20010904//EN"
 "http://www.w3.org/TR/2001/REC-SVG-20010904/DTD/svg10.dtd">
<svg version="1.0" xmlns="http://www.w3.org/2000/svg"
 width="373.000000pt" height="347.000000pt" viewBox="0 0 373.000000 347.000000"
 preserveAspectRatio="xMidYMid meet">

<g transform="translate(0.000000,347.000000) scale(0.100000,-0.100000)"
fill="#000000" stroke="none">
<path d="M1799 3162 c-24 -37 -49 -76 -56 -87 -6 -11 -50 -84 -97 -162 -47
-78 -86 -145 -86 -149 0 -4 -9 -17 -19 -28 -11 -12 -40 -57 -64 -101 -24 -44
-56 -101 -71 -127 -14 -26 -23 -54 -20 -62 5 -12 2 -15 -10 -10 -9 3 -16 1
-16 -4 0 -6 -6 -17 -14 -25 -8 -7 -23 -29 -33 -48 -10 -19 -30 -52 -44 -74
-14 -22 -39 -65 -56 -95 -42 -77 -81 -142 -144 -240 -30 -47 -84 -137 -119
-200 -36 -63 -70 -124 -77 -135 -7 -11 -16 -29 -22 -41 -5 -11 -34 -58 -63
-105 -30 -46 -71 -115 -92 -154 -20 -38 -42 -76 -50 -85 -14 -16 -112 -179
-166 -275 -19 -33 -37 -62 -41 -65 -3 -3 -19 -30 -35 -60 -15 -30 -38 -68 -50
-85 -12 -16 -36 -57 -53 -90 -18 -33 -36 -64 -42 -69 -5 -6 -9 -17 -9 -26 0
-9 -9 -25 -20 -35 -31 -28 -22 -58 20 -66 19 -4 170 -10 335 -13 165 -4 406
-8 535 -11 129 -3 379 -7 555 -10 176 -3 401 -8 500 -10 99 -2 342 -7 540 -10
198 -3 439 -8 536 -10 236 -7 234 -9 122 162 -19 29 -52 88 -74 130 -21 43
-52 101 -67 128 -15 28 -47 86 -71 130 -52 94 -190 335 -201 350 -4 6 -29 50
-54 100 -26 49 -51 94 -56 100 -4 5 -36 64 -71 130 -34 66 -78 145 -96 175
-18 30 -33 59 -33 64 0 5 -10 23 -23 40 -23 31 -167 281 -247 431 -24 44 -60
107 -80 140 -31 51 -53 89 -124 220 -6 11 -18 31 -27 45 -9 14 -51 88 -94 165
-138 249 -186 325 -205 325 -4 0 -27 -30 -51 -68z m102 -110 c18 -37 52 -98
75 -137 22 -38 83 -142 134 -230 51 -88 101 -173 111 -190 10 -16 57 -100 105
-185 47 -85 92 -162 99 -170 6 -8 31 -49 55 -90 127 -223 164 -285 170 -290 4
-3 11 -16 15 -29 4 -13 22 -50 41 -82 19 -31 34 -62 34 -68 0 -6 4 -11 9 -11
5 0 39 -60 76 -132 37 -73 90 -170 119 -216 74 -121 75 -122 174 -302 121
-221 242 -452 242 -462 0 -10 -1177 2 -1660 17 -85 3 -360 7 -610 11 -250 3
-518 7 -595 10 -77 2 -155 4 -172 4 -19 0 -33 5 -33 12 0 11 115 213 304 533
39 66 73 124 75 130 2 5 8 14 13 20 13 14 100 162 162 275 49 88 177 310 215
372 9 14 29 48 45 75 16 26 57 93 91 148 69 112 199 332 265 445 23 41 56 98
73 125 16 28 38 64 47 80 10 17 49 82 89 145 39 63 71 118 71 123 0 5 11 23
25 41 14 18 25 36 25 40 0 4 12 22 27 41 33 41 40 37 84 -53z"/>
<path d="M1823 3015 c-10 -7 -29 -33 -42 -56 -12 -24 -34 -62 -47 -84 -13 -22
-31 -53 -39 -69 -9 -15 -37 -57 -61 -93 -24 -35 -44 -66 -44 -68 0 -7 -141
-248 -170 -290 -15 -22 -45 -71 -67 -110 -55 -95 -152 -257 -185 -308 -15 -23
-41 -67 -58 -97 -17 -30 -44 -77 -60 -105 -17 -27 -33 -57 -37 -65 -4 -8 -31
-55 -60 -104 -29 -50 -53 -94 -53 -100 0 -5 -10 -23 -23 -40 -29 -39 -162
-258 -202 -334 -17 -31 -47 -83 -68 -114 -20 -31 -37 -60 -37 -63 0 -4 -9 -19
-20 -35 -33 -46 -130 -222 -130 -235 0 -7 -7 -15 -15 -19 -19 -7 -21 -85 -2
-88 6 0 23 -3 37 -4 27 -4 368 -10 1065 -19 331 -4 441 -8 448 -18 6 -9 10 -9
13 -1 3 8 41 11 122 9 217 -6 936 -17 1056 -16 66 0 123 4 127 8 10 10 -91
211 -214 426 -54 92 -97 170 -97 174 0 3 -14 26 -32 52 -49 73 -86 136 -160
279 -37 72 -85 160 -106 195 -21 34 -62 107 -92 162 -56 104 -87 158 -211 363
-41 67 -86 144 -100 170 -14 26 -52 92 -84 147 -32 55 -72 124 -89 153 -17 29
-43 74 -58 100 -15 26 -40 70 -54 97 -14 28 -37 64 -50 82 -13 17 -24 35 -24
39 0 16 -36 83 -46 88 -7 2 -20 -1 -31 -9z m42 -115 c25 -50 93 -159 120 -195
31 -40 37 -88 15 -133 -11 -23 -24 -42 -29 -42 -4 0 -19 -10 -32 -22 -62 -57
-140 -64 -211 -19 -53 34 -66 53 -74 113 -7 47 4 71 84 198 21 32 49 78 64
104 15 25 30 46 33 46 2 0 16 -22 30 -50z m285 -487 c35 -60 70 -119 79 -133
8 -14 26 -45 40 -70 13 -25 37 -64 52 -87 16 -23 29 -45 29 -49 0 -4 11 -22
25 -40 14 -18 25 -35 25 -39 0 -3 16 -31 35 -61 19 -30 35 -56 35 -57 0 -2 28
-53 62 -113 33 -60 75 -136 93 -169 17 -33 52 -99 78 -146 26 -48 47 -88 47
-90 0 -2 -38 -4 -83 -4 -82 0 -85 -1 -124 -35 -37 -33 -61 -62 -90 -112 -11
-21 -12 -20 -37 7 -14 15 -43 53 -63 84 -20 31 -54 83 -75 115 -22 33 -49 78
-60 100 -11 23 -24 43 -27 46 -5 4 -68 130 -147 295 -51 106 -84 196 -90 239
-4 25 -10 46 -14 46 -5 0 -16 26 -25 58 -18 64 -29 99 -39 123 -5 12 5 21 42
37 55 24 137 98 152 137 5 14 11 25 14 25 2 0 32 -48 66 -107z m-528 12 c21
-25 70 -55 145 -90 9 -4 -44 -219 -72 -289 -19 -49 -35 -95 -35 -102 0 -7 -4
-14 -9 -16 -4 -1 -39 -64 -77 -138 -39 -74 -81 -153 -95 -175 -14 -22 -32 -52
-40 -67 -18 -35 -90 -140 -104 -153 -6 -5 -24 -30 -40 -55 -29 -45 -102 -120
-117 -120 -5 0 -17 19 -27 43 -20 47 -69 94 -104 101 -69 14 -89 14 -123 0
-38 -16 -53 -13 -37 8 6 7 26 42 45 78 34 65 133 234 240 410 115 189 263 436
294 492 18 32 38 63 44 70 6 7 21 29 32 48 l21 35 16 -25 c9 -13 28 -38 43
-55z m227 -377 c51 -173 283 -639 392 -790 27 -37 49 -70 49 -73 0 -3 -88 -4
-195 -3 -107 2 -195 6 -195 10 0 3 12 11 28 17 54 20 87 64 113 146 33 106
-10 270 -87 333 -21 18 -47 32 -56 32 -10 0 -26 5 -36 11 -13 8 -33 8 -75 -1
-112 -23 -168 -109 -175 -268 -4 -89 -3 -96 27 -155 20 -39 45 -71 68 -87 l37
-25 -204 -3 c-111 -1 -205 0 -208 2 -2 3 18 32 44 66 27 33 64 84 82 113 18
29 38 59 45 67 7 9 16 22 20 30 4 8 27 47 51 85 70 109 208 396 238 493 7 23
16 42 19 42 3 0 11 -19 18 -42z m46 -442 c50 -50 64 -181 28 -255 -26 -52 -69
-74 -116 -59 -68 21 -79 48 -77 188 2 112 28 148 108 149 22 1 41 -7 57 -23z
m-881 -356 c28 -10 51 -49 60 -100 6 -37 0 -49 -56 -98 -25 -23 -26 -23 -48
-5 -43 37 -66 93 -61 149 2 18 49 64 65 64 8 0 26 -4 40 -10z m1710 -21 c37
-29 36 -78 -3 -118 -34 -34 -105 -81 -124 -81 -7 0 -28 15 -46 34 -29 30 -33
39 -27 69 10 53 89 116 147 117 15 0 38 -9 53 -21z m-1938 -76 c-3 -29 5 -51
31 -95 19 -32 45 -66 59 -77 13 -10 22 -25 19 -33 -3 -7 -33 -33 -68 -56 -34
-24 -118 -81 -186 -127 -136 -94 -165 -105 -133 -52 31 50 60 102 125 222 32
61 74 133 92 160 18 28 37 60 44 73 17 31 21 28 17 -15z m2131 -80 c201 -348
262 -457 259 -461 -6 -6 -171 83 -250 135 -82 54 -236 180 -236 193 0 5 16 21
36 37 53 40 124 131 124 159 0 13 4 24 8 24 5 0 31 -39 59 -87z m-1352 3 l200
-1 2 -167 c1 -93 -1 -168 -5 -168 -4 0 -15 -13 -24 -28 -18 -30 -15 -56 9
-102 23 -45 18 -53 -34 -46 -27 4 -171 7 -320 9 -150 1 -273 2 -273 3 0 1 18
13 40 28 41 27 69 69 69 102 0 10 0 37 1 60 3 49 -24 103 -79 163 -23 24 -41
47 -41 50 0 3 24 28 53 57 l52 51 75 -5 c41 -3 165 -6 275 -6z m848 -23 c15
-12 39 -38 53 -59 l25 -37 -38 -41 c-69 -74 -83 -100 -83 -158 0 -59 38 -152
70 -175 47 -33 23 -35 -262 -28 -156 4 -286 9 -290 12 -15 8 -8 36 18 70 28
37 26 65 -9 94 -20 16 -21 26 -20 172 0 86 3 159 6 164 3 4 117 8 254 8 240 0
249 -1 276 -22z m-1313 -243 c26 -51 25 -64 -7 -100 -54 -59 -160 -56 -224 6
-27 26 -38 54 -21 54 4 0 45 27 91 60 l84 60 29 -21 c15 -11 37 -38 48 -59z
m1640 -60 c21 0 8 -38 -22 -67 -43 -42 -74 -52 -131 -46 -55 7 -92 42 -103 98
-5 27 0 42 25 79 50 72 54 72 143 0 43 -35 83 -64 88 -64z m-1990 -70 c0 -15
62 -81 84 -90 13 -5 -33 -9 -116 -9 -76 -1 -138 2 -138 5 0 11 45 43 70 49 14
3 39 17 54 30 31 26 46 31 46 15z m2166 -56 c31 -20 77 -46 103 -58 l46 -21
-60 -5 c-90 -8 -275 0 -275 11 0 5 8 12 18 16 18 6 81 73 82 86 0 16 32 5 86
-29z"/>
</g>
</svg>
