<?xml version="1.0" encoding="UTF-8" standalone="no"?>
<!-- Created with Inkscape (http://www.inkscape.org/) -->

<svg
   xmlns:dc="http://purl.org/dc/elements/1.1/"
   xmlns:cc="http://creativecommons.org/ns#"
   xmlns:rdf="http://www.w3.org/1999/02/22-rdf-syntax-ns#"
   xmlns:svg="http://www.w3.org/2000/svg"
   xmlns="http://www.w3.org/2000/svg"
   xmlns:sodipodi="http://sodipodi.sourceforge.net/DTD/sodipodi-0.dtd"
   xmlns:inkscape="http://www.inkscape.org/namespaces/inkscape"
   width="210mm"
   height="210mm"
   viewBox="0 0 210 210"
   version="1.1"
   id="svg8"
   inkscape:version="0.92.4 (5da689c313, 2019-01-14)"
   sodipodi:docname="Sigil of Babalon Clean.svg">
  <defs
     id="defs2" />
  <sodipodi:namedview
     id="base"
     pagecolor="#ffffff"
     bordercolor="#666666"
     borderopacity="1.0"
     inkscape:pageopacity="0.0"
     inkscape:pageshadow="2"
     inkscape:zoom="0.98994949"
     inkscape:cx="288.68299"
     inkscape:cy="419.25997"
     inkscape:document-units="mm"
     inkscape:current-layer="layer1"
     showgrid="false"
     inkscape:window-width="1842"
     inkscape:window-height="1009"
     inkscape:window-x="1518"
     inkscape:window-y="34"
     inkscape:window-maximized="1" />
  <metadata
     id="metadata5">
    <rdf:RDF>
      <cc:Work
         rdf:about="">
        <dc:format>image/svg+xml</dc:format>
        <dc:type
           rdf:resource="http://purl.org/dc/dcmitype/StillImage" />
        <dc:title></dc:title>
      </cc:Work>
    </rdf:RDF>
  </metadata>
  <g
     inkscape:label="Layer 1"
     inkscape:groupmode="layer"
     id="layer1"
     transform="translate(0,-87)">
    <path
       style="fill:#000000;stroke-width:0.42611411"
       d="m 99.656897,283.96533 c -8.160477,-10.57975 -10.798225,-13.97475 -17.583526,-22.6314 -3.451328,-4.40319 -6.510103,-8.38203 -6.797278,-8.84187 -0.5089,-0.81488 -1.140759,-0.83608 -24.921198,-0.83608 -17.613118,0 -24.39906,-0.13172 -24.39906,-0.4736 0,-0.43357 1.746003,-8.44103 3.195138,-14.65345 0.32801,-1.40617 2.159654,-9.60669 4.07032,-18.22336 l 3.473937,-15.66669 -1.428142,-1.62573 c -0.785478,-0.89416 -2.512006,-3.04821 -3.836728,-4.7868 -1.324723,-1.73858 -5.986383,-7.76309 -10.359244,-13.3878 -4.372861,-5.6247 -9.490096,-12.20703 -11.3716342,-14.62738 -1.8815381,-2.42036 -3.3461239,-4.4755 -3.2546351,-4.56699 0.091489,-0.0915 9.9358643,-4.99668 21.8763893,-10.90043 11.940526,-5.90374 21.748158,-10.75779 21.794736,-10.78678 0.09258,-0.0576 2.579895,-11.13387 7.613015,-33.90144 1.787429,-8.085518 3.303113,-14.756578 3.368184,-14.824581 0.06508,-0.068 6.614186,3.112417 14.553578,7.067601 7.939392,3.95518 17.801859,8.8558 21.916587,10.89026 l 7.481324,3.69903 16.16801,-8.02494 c 25.52182,-12.667682 27.62427,-13.699165 27.72247,-13.600945 0.0509,0.05095 1.55767,6.708057 3.3483,14.793575 5.34434,24.13221 7.52514,33.86247 7.6054,33.93356 0.0417,0.037 4.58204,2.2701 10.08956,4.96249 11.89045,5.81274 33.38508,16.51221 33.60469,16.72755 0.0851,0.0835 -1.01868,1.64806 -2.45287,3.47692 -19.81052,25.26225 -27.70272,35.73429 -27.53336,36.53356 0.49827,2.35147 5.50717,24.98489 6.60741,29.85652 2.67618,11.84956 3.8359,17.18157 3.8359,17.63625 0,0.34188 -6.78595,0.4736 -24.39906,0.4736 -22.77435,0 -24.43031,0.0497 -24.86836,0.7457 -0.41708,0.66272 -28.825,37.34937 -29.52758,38.13259 -0.15539,0.17323 -2.67191,-2.78279 -5.592273,-6.56894 z m 13.831363,-20.35712 c 4.38785,-5.62927 8.15599,-10.34509 8.37364,-10.47961 0.21765,-0.13451 0.39572,-0.52088 0.39572,-0.85859 0,-0.52452 -2.51572,-0.61403 -17.25762,-0.61403 -11.396927,0 -17.25762,0.14696 -17.25762,0.43274 0,0.238 1.294322,2.0402 2.876271,4.00489 1.581948,1.96469 5.434799,6.85168 8.561889,10.85996 3.12709,4.00829 5.83056,7.19822 6.00771,7.08874 0.17715,-0.10948 3.91215,-4.80483 8.30001,-10.4341 z M 66.175297,240.8966 c -0.171417,-0.29295 -2.346845,-3.12128 -4.834277,-6.28518 -2.487437,-3.1639 -4.899205,-6.25989 -5.359489,-6.87998 -3.168708,-4.26885 -11.039277,-13.99961 -11.323363,-13.99961 -0.190618,0 -0.524933,0.71907 -0.742924,1.59793 -0.366985,1.47955 -4.75026,21.58699 -5.387605,24.71461 l -0.282209,1.38488 H 52.3662 c 11.178767,0 14.055834,-0.11098 13.809097,-0.53265 z m 71.882643,-8.94839 c 4.06028,-5.21458 7.49657,-9.57692 7.6362,-9.6941 0.13963,-0.11718 0.69074,-0.8385 1.22469,-1.60294 0.53394,-0.76443 1.17752,-1.26212 1.43018,-1.10597 0.27056,0.16722 0.33621,0.0846 0.15973,-0.20091 -0.17282,-0.27964 2.00835,-3.4223 5.15406,-7.42602 2.99953,-3.81766 6.27294,-8.01475 7.27423,-9.32686 l 1.82054,-2.38567 -5.18064,-23.17147 c -2.84936,-12.74431 -5.37172,-24.13023 -5.60526,-25.30205 -0.23354,-1.17181 -0.63901,-2.35487 -0.90104,-2.62903 -0.4135,-0.43262 -18.10041,-9.33938 -39.44934,-19.86586 l -6.58825,-3.24845 -23.222458,11.59333 -23.22246,11.59333 -1.830705,8.30922 c -1.006887,4.57008 -2.990009,13.58239 -4.406932,20.02737 -1.416927,6.44497 -3.152056,14.18424 -3.855846,17.19836 -1.19446,5.11553 -1.232755,5.53202 -0.575444,6.25834 0.392144,0.43331 0.562094,1.00799 0.383535,1.29691 -0.186578,0.30189 -0.142911,0.40895 0.104441,0.25608 0.233793,-0.14449 7.266936,8.55057 15.629208,19.32236 l 15.20413,19.58507 h 25.717551 25.71755 z M 101.79816,214.33297 C 93.758298,208.41435 89.401831,200.52612 88.640595,190.50861 l -0.259043,-3.40891 -2.876271,-0.126 c -1.581948,-0.0693 -2.87627,-0.0404 -2.87627,0.0642 0,0.10462 0.476796,1.21595 1.059546,2.46963 l 1.059545,2.27941 -1.280234,0.13409 c -0.704128,0.0738 -1.753732,0.0738 -2.332451,0 l -1.052216,-0.13409 1.068937,-2.29903 c 0.587914,-1.26446 0.980361,-2.38761 0.872098,-2.49587 -0.108263,-0.10826 -1.262857,0.38055 -2.565774,1.08623 l -2.368934,1.28308 v -2.51571 c 0,-1.38363 0.10225,-2.5157 0.227221,-2.5157 0.124975,0 1.198672,0.49227 2.386,1.09394 1.187325,0.60166 2.248477,1.00423 2.358111,0.8946 0.109635,-0.10964 -0.292936,-1.17079 -0.894601,-2.35811 -0.601664,-1.18733 -1.093932,-2.26103 -1.093932,-2.386 0,-0.12497 1.054632,-0.22722 2.343627,-0.22722 1.288995,0 2.343628,0.10225 2.343628,0.22722 0,0.12497 -0.479379,1.17323 -1.065286,2.32946 -0.585906,1.15623 -1.065285,2.20449 -1.065285,2.32946 0,0.12497 1.34226,0.22722 2.982799,0.22722 h 2.982799 v -2.36159 c 0,-6.16345 3.014544,-14.2473 7.179055,-19.25147 1.212397,-1.45684 3.736364,-3.83633 5.608816,-5.28774 l 3.40446,-2.63894 v -2.27469 c 0,-1.28118 -0.1923,-2.27469 -0.44027,-2.27469 -0.24216,0 -1.39267,0.4826 -2.55669,1.07246 l -2.116405,1.07246 v -2.56386 c 0,-1.41013 0.115554,-2.56386 0.256785,-2.56386 0.14123,0 1.18527,0.52193 2.32009,1.15984 1.13482,0.63791 2.18267,1.04048 2.32855,0.8946 0.14588,-0.14589 -0.22703,-1.2367 -0.82869,-2.42402 -0.60167,-1.18733 -1.09394,-2.26103 -1.09394,-2.386 0,-0.12497 1.05464,-0.22722 2.34363,-0.22722 1.289,0 2.34363,0.10225 2.34363,0.22722 0,0.12497 -0.49227,1.19867 -1.09393,2.386 -0.60167,1.18732 -0.96976,2.28295 -0.81799,2.43472 0.15177,0.15177 1.21939,-0.2508 2.3725,-0.8946 1.1531,-0.6438 2.19232,-1.17054 2.30938,-1.17054 0.11706,0 0.21284,1.15327 0.21284,2.56282 v 2.56281 l -2.55669,-1.29061 -2.55668,-1.29061 v 2.46851 2.4685 l 3.7178,2.97058 c 4.37446,3.49527 7.27334,6.94305 9.30488,11.06676 1.66786,3.38549 3.02154,8.49146 3.33262,12.57037 0.11617,1.52335 0.22291,2.81768 0.23719,2.87627 0.053,0.21746 5.56544,0.0979 5.56544,-0.1207 0,-0.12497 -0.47938,-1.17323 -1.06528,-2.32946 -0.58591,-1.15623 -1.06529,-2.20449 -1.06529,-2.32946 0,-0.12497 1.05463,-0.22722 2.34363,-0.22722 1.28899,0 2.34363,0.10225 2.34363,0.22722 0,0.12497 -0.49227,1.19867 -1.09394,2.386 -0.60166,1.18732 -1.00423,2.24847 -0.8946,2.35811 0.10964,0.10963 1.17079,-0.29294 2.35811,-0.8946 1.18733,-0.60167 2.26103,-1.09394 2.386,-1.09394 0.12498,0 0.22723,1.13207 0.22723,2.5157 v 2.51571 l -2.36894,-1.28308 c -1.30292,-0.70568 -2.45751,-1.19449 -2.56577,-1.08623 -0.10827,0.10826 0.27873,1.22332 0.85999,2.47791 0.58126,1.25458 1.01679,2.32014 0.96785,2.36789 -0.0489,0.0478 -1.04775,0.13716 -2.21956,0.19865 -2.39001,0.12542 -2.41747,0.0506 -1.04018,-2.83424 0.45492,-0.95285 0.82712,-1.86367 0.82712,-2.02404 0,-0.16037 -1.24273,-0.29158 -2.76162,-0.29158 -3.17933,0 -2.99229,-0.28946 -3.38605,5.24022 -0.4682,6.57505 -3.62556,13.39219 -8.48825,18.32723 -2.66911,2.70882 -6.84183,5.83442 -7.78903,5.83442 -0.2703,0 -1.68685,-0.87999 -3.14788,-1.95554 z m 5.92541,-10.42791 c 3.24067,-3.87835 6.01177,-10.38927 6.01177,-14.12515 v -1.18881 h -8.766 -8.766 l 0.304791,2.45015 c 0.372948,2.99805 1.518411,6.42325 3.016782,9.02088 1.496797,2.5949 4.758557,6.42576 5.471157,6.42576 0.31314,0 1.54052,-1.16228 2.7275,-2.58283 z m 6.01177,-20.12475 c 0,-3.73181 -3.14557,-10.82884 -6.42689,-14.50036 l -2.21611,-2.47964 -1.76766,1.73483 c -3.29954,3.23825 -6.177463,9.1249 -6.836542,13.98383 l -0.303449,2.2371 h 8.775331 8.77532 z m 57.95152,56.96226 c 0,-0.37767 -0.58688,-3.30187 -1.30417,-6.49824 -2.87515,-12.81207 -4.71119,-20.70431 -4.84859,-20.84172 -0.0796,-0.0796 -3.34574,3.94071 -7.25802,8.93408 -3.91227,4.99338 -8.77518,11.18468 -10.80646,13.75845 -2.03128,2.57378 -3.75715,4.82686 -3.83527,5.00684 -0.0781,0.17999 6.20173,0.32726 13.95524,0.32726 12.68018,0 14.09727,-0.069 14.09727,-0.68667 z M 40.53837,185.71482 c 0.391544,-2.05067 2.068773,-9.74834 3.727176,-17.10594 1.658402,-7.35759 2.913285,-13.47944 2.788627,-13.60409 -0.124658,-0.12466 -5.700705,2.4916 -12.391216,5.81392 -6.690512,3.32231 -12.361377,6.04057 -12.601924,6.04057 -0.240547,0 -0.373441,0.18674 -0.29532,0.41499 0.325745,0.95172 17.162385,22.16905 17.591866,22.16905 0.257891,0 0.789247,-1.67782 1.180791,-3.7285 z m 138.9861,-7.03088 c 4.59071,-5.91766 8.34853,-10.95377 8.35073,-11.19137 0.005,-0.50176 -24.56004,-12.85711 -24.89544,-12.52171 -0.1234,0.1234 1.40172,7.53233 3.38914,16.4643 1.98743,8.93197 3.6135,16.63779 3.6135,17.12405 0,0.48626 0.26895,0.88411 0.59766,0.88411 0.32871,0 4.3537,-4.84172 8.94441,-10.75938 z M 83.374711,125.4549 c 5.214571,-2.56658 9.481039,-4.85804 9.481039,-5.09212 0,-0.41034 -23.910435,-12.30725 -24.73514,-12.30725 -0.223075,0 -0.405592,0.13361 -0.405592,0.29692 0,0.30488 -3.53293,16.46009 -4.268194,19.51738 -0.781804,3.25082 -1.697404,7.51185 -1.697404,7.8994 0,0.21424 2.732457,-0.96887 6.072126,-2.62914 3.339669,-1.66026 10.338593,-5.1186 15.553165,-7.68519 z m 64.875869,9.95 c 0,-0.19142 -0.96421,-4.64964 -2.14269,-9.90715 -1.17849,-5.25751 -2.53649,-11.33281 -3.01778,-13.50067 -0.4813,-2.16785 -1.0278,-3.94155 -1.21445,-3.94155 -0.69772,0 -24.73141,11.91017 -24.73141,12.25593 0,0.39302 29.70461,15.3687 30.57369,15.41383 0.29295,0.0152 0.53264,-0.12897 0.53264,-0.32039 z"
       id="path4758"
       inkscape:connector-curvature="0"
       sodipodi:nodetypes="cscsssscccsccscscsccscscscccssscccccsssscsccssssscscssccccscsccscccsssccsscccscscssccccccsccsscccsssssscscccssccsssccssscscssccccccsccscssscccsscccccccssssscccscccssscssccccccsscccccssssccscssscscssscsssssccsccsscs" />
  </g>
</svg>
