<?xml version="1.0" encoding="UTF-8" standalone="no"?>
<!-- Created with Inkscape (http://www.inkscape.org/) -->

<svg
   xmlns:dc="http://purl.org/dc/elements/1.1/"
   xmlns:cc="http://creativecommons.org/ns#"
   xmlns:rdf="http://www.w3.org/1999/02/22-rdf-syntax-ns#"
   xmlns:svg="http://www.w3.org/2000/svg"
   xmlns="http://www.w3.org/2000/svg"
   xmlns:sodipodi="http://sodipodi.sourceforge.net/DTD/sodipodi-0.dtd"
   xmlns:inkscape="http://www.inkscape.org/namespaces/inkscape"
   width="210mm"
   height="210mm"
   viewBox="0 0 210 210"
   version="1.1"
   id="svg8"
   inkscape:version="0.92.4 (5da689c313, 2019-01-14)"
   sodipodi:docname="Chi-Rho.svg">
  <defs
     id="defs2" />
  <sodipodi:namedview
     id="base"
     pagecolor="#ffffff"
     bordercolor="#666666"
     borderopacity="1.0"
     inkscape:pageopacity="0.0"
     inkscape:pageshadow="2"
     inkscape:zoom="0.49497475"
     inkscape:cx="181.81466"
     inkscape:cy="501.33255"
     inkscape:document-units="mm"
     inkscape:current-layer="layer1"
     showgrid="false"
     inkscape:window-width="1842"
     inkscape:window-height="1009"
     inkscape:window-x="1518"
     inkscape:window-y="34"
     inkscape:window-maximized="1" />
  <metadata
     id="metadata5">
    <rdf:RDF>
      <cc:Work
         rdf:about="">
        <dc:format>image/svg+xml</dc:format>
        <dc:type
           rdf:resource="http://purl.org/dc/dcmitype/StillImage" />
        <dc:title></dc:title>
      </cc:Work>
    </rdf:RDF>
  </metadata>
  <g
     inkscape:label="Layer 1"
     inkscape:groupmode="layer"
     id="layer1"
     transform="translate(0,-87)">
    <path
       style="fill:#000000;stroke-width:0.91341335"
       d="M 92.319159,289.70242 C 71.897906,286.65344 49.241253,275.58158 36.089496,262.22404 27.212534,253.2082 17.560846,239.46332 15.581035,233.01807 c -0.367888,-1.19763 -0.975061,-2.58854 -1.349284,-3.09095 -1.306705,-1.7542 -4.4007547,-11.93474 -5.9408273,-19.54755 -1.5632023,-7.72709 -1.5537456,-24.687 0.019294,-34.80054 1.8397023,-11.8271 8.6216563,-28.62574 16.0825933,-39.83592 4.004371,-6.01669 18.390355,-20.12266 25.405853,-24.91139 4.767765,-3.25447 13.106935,-7.57071 21.511903,-11.134481 2.809769,-1.191355 11.70983,-3.587232 15.169175,-4.083497 13.107292,-1.880406 18.644958,-2.15358 27.175398,-1.34079 17.58322,1.675355 32.71652,7.061358 47.16991,16.787938 4.66878,3.14197 18.99801,16.70118 21.93905,20.76018 7.92902,10.94306 14.39501,24.44508 17.45598,36.45065 3.36331,13.19172 3.55484,32.76563 0.4424,45.21397 -3.62543,14.50042 -10.77943,29.32755 -19.09203,39.56993 -5.05114,6.22379 -4.30502,5.48547 -13.80155,13.65765 -4.21898,3.63053 -8.19231,6.60104 -8.82967,6.60104 -0.63739,0 -1.29591,0.3517 -1.46336,0.78159 -0.57299,1.47096 -13.99887,8.2038 -20.98059,10.52148 -12.49181,4.14671 -33.93141,6.61459 -44.176226,5.08504 z m 5.937161,-49.72773 c 0,-37.23743 0.04935,-36.83248 -4.13542,-33.90685 -0.990963,0.69276 -3.240359,2.07867 -4.998681,3.07968 -3.083018,1.75526 -16.139025,9.36164 -22.932296,13.36027 -1.811651,1.06637 -9.098554,5.22715 -16.19312,9.2462 -7.569272,4.28795 -12.907459,7.87642 -12.919177,8.68473 -0.05753,3.97076 17.731301,19.73428 28.882925,25.59453 8.739219,4.59249 22.593425,8.85916 29.327235,9.03182 l 2.968534,0.0759 z m 26.03229,33.38918 c 14.54516,-3.51198 27.55388,-10.54199 38.46369,-20.78597 5.79826,-5.44441 11.64845,-12.75188 10.676,-13.33542 -1.08233,-0.64961 -7.25377,-4.1588 -13.97328,-7.94559 -3.26542,-1.84019 -8.11316,-4.64811 -10.77279,-6.23979 -2.65958,-1.59172 -5.05173,-2.89397 -5.31586,-2.89397 -0.2639,0 -2.19853,-1.16785 -4.29856,-2.59523 -2.10003,-1.4274 -6.07892,-3.83465 -8.84201,-5.34941 -2.76306,-1.51479 -7.55916,-4.2518 -10.65797,-6.08218 -3.09875,-1.83044 -6.07872,-3.32807 -6.62219,-3.32807 -0.69136,0 -0.98808,10.55967 -0.98808,35.16645 v 35.16639 l 2.51191,-0.002 c 1.38152,-10e-4 5.80014,-0.80035 9.81914,-1.77079 z M 40.984072,220.57599 c 1.908338,-1.18005 4.374556,-2.54488 5.480478,-3.03298 1.105934,-0.48812 3.121799,-1.60071 4.479715,-2.4724 1.357917,-0.87173 6.701384,-4.00917 11.87437,-6.97208 5.172994,-2.96301 12.378467,-7.17612 16.012121,-9.36253 3.633689,-2.18637 6.833705,-3.97527 7.111094,-3.97527 0.277551,0 1.531149,-0.67274 2.786049,-1.49501 l 2.281689,-1.49501 -5.282402,-3.08838 c -2.905327,-1.69872 -5.898932,-3.4932 -6.652528,-3.9877 -0.753563,-0.49456 -2.348613,-1.31952 -3.544582,-1.83316 -1.195971,-0.51374 -3.251145,-1.68316 -4.567078,-2.59875 -1.315901,-0.91558 -4.653282,-2.91527 -7.416344,-4.44374 -6.872151,-3.80152 -27.647292,-15.77469 -28.772531,-16.58218 -0.502378,-0.36058 -2.038905,-1.1359 -3.414506,-1.72299 -2.323041,-0.99145 -2.604371,-0.86778 -3.951655,1.7376 -0.797812,1.54282 -1.609919,3.48416 -1.804686,4.31422 -0.194795,0.83006 -1.148962,4.48498 -2.120419,8.12213 -3.830745,14.34227 -2.078325,39.01733 3.662886,51.57553 l 1.96451,4.29713 4.202062,-2.41946 c 2.311119,-1.33074 5.763419,-3.38497 7.671757,-4.56497 z m 141.704958,3.52617 c 0.74747,-1.44536 2.29194,-5.86405 3.43217,-9.8192 1.79799,-6.2367 2.07002,-9.25205 2.04946,-22.7192 -0.0235,-13.02205 -0.33039,-16.55986 -1.92377,-21.92189 -2.05969,-6.93151 -4.53193,-13.24452 -5.18666,-13.24452 -0.22541,0 -3.17841,1.68193 -6.56213,3.73757 -7.39164,4.49054 -10.93281,6.51014 -24.86222,14.17917 -2.38633,1.31381 -5.36634,3.09661 -6.62226,3.96176 -1.25598,0.86514 -2.90015,1.83604 -3.6537,2.15757 -0.75354,0.32137 -3.42524,1.82243 -5.93717,3.33541 -2.51187,1.51303 -6.56087,3.87093 -8.99779,5.23986 l -4.43077,2.48889 2.60389,2.08377 c 1.43222,1.14601 2.89415,2.08574 3.24883,2.08826 0.35466,0.001 2.8209,1.29506 5.48048,2.8724 8.61485,5.10918 18.23048,10.66005 19.76065,11.40743 0.67312,0.32869 7.45524,4.22022 15.07135,8.64761 7.61612,4.42751 14.14515,8.06869 14.50905,8.09159 0.3639,0.0261 1.27312,-1.14108 2.02059,-2.58648 z M 98.25632,143.94054 v -36.20561 l -5.159792,0.60645 c -12.454642,1.4638 -24.526957,6.1441 -36.125001,14.00528 -7.701423,5.22006 -17.612376,15.05383 -21.118111,20.95362 -0.403768,0.67948 2.408206,2.73685 7.822597,5.7233 4.64913,2.56435 9.06952,5.05307 9.823083,5.53047 1.492753,0.94573 15.588283,8.99954 26.488999,15.13512 3.76781,2.12078 9.31682,5.30439 12.331064,7.07476 3.014266,1.77032 5.583244,3.25553 5.708864,3.30043 0.125474,0.0449 0.228239,-16.21074 0.228239,-36.12382 z m 19.82659,32.72483 c 2.40839,-1.412 4.99548,-2.86675 5.74903,-3.23273 0.75357,-0.366 2.19218,-1.16507 3.19698,-1.77561 8.36567,-5.08376 19.9501,-11.79221 21.65862,-12.54232 1.14952,-0.50473 3.32312,-1.72728 4.83035,-2.71694 1.50711,-0.98957 4.42614,-2.73043 6.48672,-3.86844 8.36973,-4.62252 14.06505,-8.21981 14.06505,-8.88375 0,-0.95002 -3.24678,-5.2108 -7.2305,-9.48878 -12.65008,-13.58438 -32.50648,-24.05992 -48.52683,-25.60102 l -5.89805,-0.56739 5.02371,1.37875 c 10.95187,3.00561 16.98893,7.96687 20.95593,17.22151 2.36408,5.51517 2.45073,14.90577 0.18884,20.4763 -3.57855,8.81367 -13.04422,16.19907 -22.14297,17.27674 l -4.48242,0.53083 v 7.18009 c 0,3.95746 0.39192,7.18005 0.87326,7.18005 0.48026,0 2.84372,-1.15528 5.25212,-2.56729 z m 0.72526,-26.55299 c 2.00951,-0.92276 4.30527,-2.45513 5.10166,-3.40521 7.14485,-8.52362 2.23219,-22.5618 -8.60706,-24.59526 l -3.34521,-0.6276 v 15.17298 c 0,17.07817 -0.19678,16.69135 6.85061,13.45509 z"
       id="path4780"
       inkscape:connector-curvature="0" />
  </g>
</svg>
