<?xml version="1.0" encoding="UTF-8" standalone="no"?>
<svg xmlns="http://www.w3.org/2000/svg" version="1.0" width="100" height="100">
  <path d="M 98.479958,49.966033 C 98.479958,50.611413 98.178498,51.235564 97.579827,51.834239 L 55.018677,52.038044 C 61.493717,58.585259 71.136207,68.389096 83.941917,81.453804 C 84.222147,81.734034 84.366507,82.209578 84.366507,82.880434 C 84.366507,83.907947 83.729617,84.493885 82.464337,84.629755 L 52.097487,55.33288 L 52.097487,97.316575 C 51.562497,98.09358 50.912877,98.48845 50.144357,98.48845 C 49.677307,98.48845 49.019187,98.271908 48.174257,97.84307 L 47.953467,55.33288 C 46.221127,56.929348 43.635357,59.370754 40.208897,62.652853 C 36.812157,66.049592 34.667967,69.081182 33.789067,71.73913 C 32.871947,74.490489 32.336957,76.702615 32.192597,78.362771 C 32.158627,78.613281 32.014267,81.657608 31.768007,87.499999 C 31.279717,87.882132 30.727747,88.077445 30.120587,88.077445 C 29.169497,88.077445 27.984887,86.909816 26.570997,84.578804 C 26.036007,83.627717 25.203807,82.192595 24.074387,80.281929 C 22.872797,78.65574 21.229617,77.004076 19.149117,75.339674 C 18.614127,75.059443 17.106827,74.227241 14.631457,72.84307 C 12.831187,71.862262 11.931047,70.817765 11.931047,69.71807 C 11.931047,68.771229 12.228257,68.253227 12.831187,68.172554 C 17.493207,68.172554 22.108527,67.590863 26.672897,66.423233 C 29.466717,65.722656 32.515287,63.884172 35.810127,60.903533 C 37.822687,58.992867 40.862767,56.126868 44.930367,52.309783 L 24.821667,52.088995 C 23.471467,52.27157 22.235907,52.488111 21.119227,52.734375 C 20.006797,52.984885 18.694807,53.426461 17.179007,54.059103 C 12.648607,55.940048 8.2922869,59.090523 4.1185471,63.502038 C 3.9826771,63.536005 3.7321681,63.552989 3.3712641,63.552989 C 2.1357001,63.552989 1.5200421,62.635869 1.5200421,60.80163 C 1.5200421,59.60428 1.8257481,57.744565 2.4371611,55.230978 C 3.0570651,52.721637 3.3712641,50.844939 3.3712641,49.609375 C 3.3712641,49.282439 3.0698031,47.384511 2.4711281,43.919837 L 1.5200421,38.298234 C 1.5200421,37.202785 2.1908981,36.650816 3.5411011,36.650816 C 3.7066931,36.650816 4.7342071,37.52123 6.6151471,39.249321 C 8.8442569,41.300102 10.967217,42.981488 12.984037,44.293479 C 15.994397,46.242358 18.877377,47.42697 21.628737,47.843071 L 44.675607,47.690218 C 35.750677,38.217561 28.248137,33.245585 22.172217,32.778533 C 20.393177,32.680877 17.276667,32.464335 12.831187,32.133153 C 12.185807,32.099185 11.884337,31.572691 11.931047,30.553669 C 11.931047,30.273437 11.948027,29.933764 11.981997,29.534647 C 12.750507,28.902005 15.030567,27.326767 18.826427,24.81318 C 21.620247,22.949219 23.547897,21.140456 24.600887,19.395381 C 25.097657,18.44854 25.861927,17.051631 26.893687,15.217392 C 28.057067,13.192087 29.135527,12.177311 30.120587,12.177311 C 30.795687,12.177311 31.385867,12.461788 31.886887,13.026495 L 31.886887,19.769022 C 31.950577,20.304009 32.094937,21.276326 32.311477,22.690218 C 32.409137,23.225205 32.587467,24.197521 32.837977,25.611414 C 33.003567,28.443445 34.863277,31.75102 38.408627,35.529892 C 40.455167,37.627379 43.554687,40.765116 47.698707,44.938859 L 47.851567,25.611414 C 47.601057,23.034138 47.032097,20.575749 46.153197,18.24049 C 45.482337,16.431727 44.242527,14.12619 42.433767,11.328126 C 42.399797,11.294159 41.266137,9.935463 39.037027,7.252039 C 37.270717,5.1248315 36.387567,3.8850217 36.387567,3.5326098 C 36.387567,2.1866522 36.969257,1.51155 38.136887,1.51155 C 36.234717,1.51155 37.427817,1.8724533 41.720447,2.5815228 C 46.021567,3.2863467 48.862097,3.6345119 50.246267,3.6345119 C 53.774627,3.6345119 57.600207,2.929688 61.710257,1.51155 C 62.160327,1.51155 62.567937,1.889437 62.933087,2.6324739 C 63.179347,3.1674598 63.306727,3.5920532 63.306727,3.906251 C 63.306727,4.1907282 62.504247,5.1333228 60.912027,6.7255445 C 58.861247,8.7423586 57.230807,10.670007 56.020717,12.500001 C 54.084577,15.48064 52.772587,18.609886 52.097487,21.891984 L 52.318277,44.938859 C 71.947177,25.411855 82.048237,15.641985 82.617187,15.641985 C 83.780567,15.641985 84.366507,16.227923 84.366507,17.391305 C 84.366507,18.444294 81.657607,21.59477 76.248297,26.83424 C 70.618207,32.28176 66.355297,36.527684 63.459577,39.572011 C 61.939537,41.092052 59.217897,43.830673 55.290417,47.79212 L 97.325067,47.79212 C 98.093578,48.721977 98.479958,49.448031 98.479958,49.966033 z M 54.220447,7.7275825 L 45.202107,7.7275825 C 46.683937,9.608527 48.242187,12.249491 49.872627,15.641985 C 52.033797,12.066916 53.481657,9.425952 54.220447,7.7275825 z M 30.239467,30.502718 C 29.526157,28.693955 28.800097,25.963826 28.065557,22.316577 C 26.749317,23.632814 24.694297,25.632643 21.900477,28.311821 C 24.545687,28.81284 27.326767,29.54314 30.239467,30.502718 z M 15.378737,50.13587 C 13.531757,49.040422 10.890797,47.567086 7.4643371,45.720109 L 7.4643371,54.483696 C 9.4089669,53.320313 12.049937,51.868207 15.378737,50.13587 z M 30.239467,69.446331 C 26.910667,71.259341 24.095617,72.074558 21.798577,71.891983 C 23.348337,73.522418 25.437327,75.539232 28.065557,77.938179 C 28.549597,75.471297 29.275647,72.639266 30.239467,69.446331 z" style="fill:#000000"/>
</svg>