<?xml version="1.0" encoding="UTF-8" standalone="no"?>
<!-- Created with Inkscape (http://www.inkscape.org/) -->

<svg
   xmlns:dc="http://purl.org/dc/elements/1.1/"
   xmlns:cc="http://creativecommons.org/ns#"
   xmlns:rdf="http://www.w3.org/1999/02/22-rdf-syntax-ns#"
   xmlns:svg="http://www.w3.org/2000/svg"
   xmlns="http://www.w3.org/2000/svg"
   xmlns:sodipodi="http://sodipodi.sourceforge.net/DTD/sodipodi-0.dtd"
   xmlns:inkscape="http://www.inkscape.org/namespaces/inkscape"
   width="210mm"
   height="210mm"
   viewBox="0 0 210 210"
   version="1.1"
   id="svg4760"
   inkscape:version="0.92.4 (5da689c313, 2019-01-14)"
   sodipodi:docname="Hexagram.svg">
  <defs
     id="defs4754" />
  <sodipodi:namedview
     id="base"
     pagecolor="#ffffff"
     bordercolor="#666666"
     borderopacity="1.0"
     inkscape:pageopacity="0.0"
     inkscape:pageshadow="2"
     inkscape:zoom="0.49497475"
     inkscape:cx="343.8618"
     inkscape:cy="267.10579"
     inkscape:document-units="mm"
     inkscape:current-layer="layer1"
     showgrid="false"
     inkscape:window-width="1842"
     inkscape:window-height="1009"
     inkscape:window-x="1518"
     inkscape:window-y="34"
     inkscape:window-maximized="1" />
  <metadata
     id="metadata4757">
    <rdf:RDF>
      <cc:Work
         rdf:about="">
        <dc:format>image/svg+xml</dc:format>
        <dc:type
           rdf:resource="http://purl.org/dc/dcmitype/StillImage" />
        <dc:title />
      </cc:Work>
    </rdf:RDF>
  </metadata>
  <g
     inkscape:label="Layer 1"
     inkscape:groupmode="layer"
     id="layer1"
     transform="translate(0,-87)">
    <path
       style="fill:#000000;stroke-width:0.35216039"
       d="m 105.02251,291.81748 c 0,-0.22391 -0.45885,-1.17038 -1.01966,-2.10327 -1.42454,-2.36967 -6.742748,-11.40754 -12.706241,-21.59322 -2.778302,-4.74537 -6.353341,-10.84655 -7.944525,-13.55818 -1.591184,-2.71164 -3.982485,-6.79028 -5.314018,-9.06366 l -2.420956,-4.13343 -28.798155,-0.003 -28.798155,-0.003 0.584442,-1.14453 c 0.32145,-0.62947 1.616979,-2.8877 2.87894,-5.01827 1.261962,-2.13057 2.569229,-4.3492 2.905054,-4.93025 1.061725,-1.83711 17.221769,-29.41124 19.572328,-33.39658 1.25186,-2.12252 2.250149,-4.23249 2.250149,-4.75591 0,-0.92424 -3.979303,-8.22026 -4.608733,-8.45006 -0.176837,-0.0645 -0.321517,-0.28056 -0.321517,-0.47998 0,-0.38283 -3.828755,-7.15501 -9.517702,-16.83459 -1.878281,-3.19586 -4.886899,-8.3462 -6.685799,-11.44521 -1.798913,-3.09901 -3.880903,-6.63417 -4.626676,-7.8559 -0.745759,-1.22174 -1.355929,-2.30659 -1.355929,-2.41077 0,-0.10417 -0.327067,-0.64875 -0.726819,-1.21016 l -0.726833,-1.02074 28.791314,-0.0902 28.791326,-0.0901 3.824603,-6.33888 c 2.103525,-3.4864 3.976203,-6.65583 4.161504,-7.04323 0.185289,-0.38736 5.231442,-8.82974 11.213675,-18.76082 l 10.876793,-18.056518 1.32101,2.385372 c 1.53471,2.771252 12.45914,22.700306 14.43446,26.332296 3.48523,6.4082 9.19923,15.00479 12.84326,19.32242 l 1.93688,2.29489 28.26088,0.0202 c 15.54349,0.011 28.26088,0.0938 28.26088,0.1839 0,0.19405 -3.20012,5.76338 -11.33874,19.73344 -2.0311,3.48638 -3.91602,6.76394 -4.18872,7.28344 -0.27272,0.51949 -2.01669,3.53047 -3.87551,6.69105 -1.85881,3.16057 -3.81613,6.5336 -4.3496,7.49559 -0.53347,0.962 -1.74626,3.039 -2.69511,4.61554 -0.94883,1.57654 -1.71556,3.24575 -1.70382,3.70939 0.0121,0.46362 0.92295,2.37924 2.02492,4.25694 1.10197,1.87769 2.94479,5.04714 4.09512,7.0432 1.15036,1.99607 3.07259,5.29319 4.27166,7.32691 1.19903,2.03373 3.2796,5.59934 4.62344,7.92361 2.12339,3.67251 6.90922,11.90411 11.67051,20.07314 l 1.43678,2.46512 -28.42997,0.0902 -28.43,0.0902 -2.98204,5.01623 c -1.64011,2.75892 -3.19279,5.41206 -3.45038,5.89585 -0.25758,0.48379 -0.69508,1.13015 -0.97219,1.43638 -0.27714,0.30621 -0.50387,0.66651 -0.50387,0.80068 0,0.13417 -0.37121,0.83483 -0.82489,1.55699 -0.4537,0.72219 -1.90647,3.1355 -3.22836,5.3629 -1.32191,2.22741 -3.70023,6.18923 -5.28515,8.80401 -1.58492,2.6148 -4.99083,8.31979 -7.56868,12.67778 -5.2601,8.89152 -5.63118,9.4784 -5.63118,8.90485 z m 0.70433,-8.49039 c 0,-0.15892 1.13472,-2.25866 2.52161,-4.66612 1.3869,-2.40746 3.73609,-6.51657 5.22045,-9.13134 1.48434,-2.61479 5.59481,-9.80175 9.13436,-15.971 3.53955,-6.16925 6.30109,-11.31959 6.13673,-11.44522 -0.16435,-0.12564 -3.7874,-0.18307 -8.05123,-0.12764 l -7.75241,0.10076 -3.57101,6.22694 c -1.96404,3.42481 -3.70761,6.27247 -3.8746,6.32813 -0.16699,0.0557 -1.47279,-1.92017 -2.90179,-4.39074 -1.42898,-2.47058 -4.134848,-7.10674 -6.013022,-10.3026 -1.878174,-3.19585 -5.72129,-9.77245 -8.540282,-14.61467 -2.818978,-4.84221 -6.515671,-11.18109 -8.214865,-14.08641 -1.699208,-2.90532 -4.140023,-7.10483 -5.424065,-9.33224 -1.284029,-2.22743 -2.516628,-4.04985 -2.739117,-4.04985 -0.222491,0 -2.29877,2.99204 -4.613952,6.64896 l -4.209421,6.64897 1.5023,2.50721 c 0.826258,1.37895 10.337411,17.6809 21.13588,36.22655 10.79847,18.54566 19.773264,33.71936 19.943984,33.71936 0.17075,0 0.31045,-0.13003 0.31045,-0.28894 z M 72.271588,236.93198 c 0,-0.27327 -4.71166,-8.24297 -6.596755,-11.1583 -1.360455,-2.10395 -1.666611,-2.37928 -2.664516,-2.39619 -2.552245,-0.0433 -11.84196,-0.89359 -12.051459,-1.10308 -0.124315,-0.12433 -0.03101,-0.59625 0.207556,-1.04864 1.230363,-2.33353 31.438274,-55.10458 31.706962,-55.38979 0.17335,-0.18399 0.315181,-0.46132 0.315181,-0.61627 0,-0.53676 -13.102297,-0.32686 -15.012801,0.2405 l -1.758544,0.52224 -9.994134,17.52599 c -5.496777,9.63928 -12.91975,22.59708 -16.495508,28.79512 -3.575758,6.19802 -7.003989,12.14072 -7.618298,13.20602 -0.614297,1.06527 -2.333243,4.02375 -3.819891,6.57436 -1.486633,2.55064 -2.702967,4.72963 -2.702967,4.84221 0,0.11265 10.459158,0.20471 23.242586,0.20471 12.783417,0 23.242588,-0.0895 23.242588,-0.19888 z m 112.339162,-0.1645 c 0,-0.19987 -1.41277,-2.77504 -3.13949,-5.72261 -1.72673,-2.94756 -6.39305,-10.98498 -10.36963,-17.86091 -3.97656,-6.87593 -7.6911,-13.27682 -8.25455,-14.22419 l -1.02448,-1.72249 -1.19289,1.72249 c -4.41798,6.37938 -7.36123,11.28753 -7.36123,12.27552 0,0.76722 0.94489,2.48728 3.32319,6.04952 l 3.32321,4.97746 -8.51756,0.20714 c -4.68467,0.11399 -19.84483,0.29961 -33.68925,0.41264 -13.84442,0.11301 -25.239502,0.27332 -25.322383,0.35621 -0.08292,0.0829 0.432349,1.06363 1.144966,2.17943 0.712604,1.11583 2.59935,4.20654 4.192744,6.86827 l 2.897103,4.83947 41.99513,0.002 c 28.62863,0.001 41.99512,-0.11301 41.99512,-0.36066 z m -39.90407,-20.50212 c 0.60244,-1.01686 4.53459,-7.79154 8.73815,-15.05485 10.19288,-17.6123 14.5646,-25.14361 23.71272,-40.85062 4.23033,-7.26331 7.62853,-13.32486 7.55156,-13.47013 -0.22887,-0.43205 -46.58353,-0.3266 -46.58353,0.10604 0,0.20354 1.08404,2.22406 2.40896,4.49005 1.32494,2.26599 2.84196,4.88103 3.37121,5.8112 0.56396,0.99124 1.35245,1.8419 1.905,2.05519 0.51852,0.20018 3.39947,0.49779 6.4021,0.6614 5.2442,0.28575 7.08351,0.6147 7.53661,1.34784 0.20685,0.33468 -1.00822,2.5143 -11.41716,20.48028 -2.86153,4.93906 -8.41532,14.52663 -12.34174,21.3057 -3.92641,6.77911 -7.42879,12.80104 -7.78303,13.38211 -0.35427,0.58106 -0.64473,1.17534 -0.64545,1.3206 -6.9e-4,0.14527 3.61007,0.26412 8.02398,0.26412 h 8.02528 z m -17.27057,-11.64721 c 3.74864,-6.35755 6.81572,-11.89237 6.81572,-12.29961 0,-0.40726 -1.16013,-2.73306 -2.57807,-5.16846 -1.41792,-2.43539 -2.75724,-4.74493 -2.97623,-5.13232 -0.219,-0.38737 -1.72573,-3.00216 -3.3483,-5.81065 -1.62258,-2.80846 -3.38017,-5.85906 -3.90576,-6.77908 l -0.95559,-1.67277 -15.39218,0.002 -15.392178,0.002 -1.082515,2.02209 c -0.595396,1.11214 -2.674379,4.79533 -4.619954,8.18487 -1.94559,3.38956 -4.509042,7.86061 -5.69656,9.93569 -1.187532,2.07514 -2.159135,4.02626 -2.159135,4.33589 0,0.30964 1.053886,2.33594 2.341973,4.5029 1.288103,2.16697 2.736017,4.65305 3.217587,5.52465 0.481583,0.8716 1.329362,2.26618 1.883951,3.09905 0.554588,0.8329 1.008339,1.5888 1.008339,1.67977 0,0.091 0.431735,0.83579 0.959411,1.6551 0.527674,0.81933 1.136727,1.80664 1.353441,2.19402 0.216713,0.38737 0.715612,1.25896 1.108682,1.93688 0.393058,0.67791 1.012173,1.7479 1.375802,2.37777 l 0.661148,1.1452 15.282358,-0.0888 15.28234,-0.0888 z M 52.419591,181.52578 c 1.426459,-2.57788 3.08772,-5.61414 3.691661,-6.74726 l 1.098102,-2.06024 -3.209774,-5.2868 c -1.765384,-2.90774 -3.209772,-5.52433 -3.209772,-5.81465 0,-0.2903 0.306516,-0.69189 0.681165,-0.8924 0.455629,-0.24383 11.5914,-0.36454 33.631323,-0.36454 18.122564,0 32.950144,-0.0701 32.950144,-0.15574 0,-0.0857 -0.61329,-1.15535 -1.36288,-2.37708 -0.74958,-1.22174 -2.42238,-4.24187 -3.71734,-6.71139 l -2.35444,-4.49004 H 68.176275 c -34.264479,0 -42.41957,0.0867 -42.32765,0.44987 0.244557,0.96622 23.374928,39.29636 23.666923,39.21926 0.170754,-0.0451 1.47757,-2.19113 2.904043,-4.76899 z m 90.802349,-1.44632 c 1.85453,-3.09979 3.54924,-6.02525 3.76603,-6.50104 0.35253,-0.77374 0.0949,-1.37759 -2.44018,-5.72118 -1.55886,-2.67086 -5.67686,-9.76878 -9.15109,-15.77312 -6.87451,-11.88081 -11.37,-19.63209 -19.09654,-32.92699 -2.75788,-4.74537 -6.30469,-10.88415 -7.88185,-13.64174 -1.57716,-2.75761 -3.00957,-4.96849 -3.18315,-4.91309 -0.26697,0.0851 -23.807396,40.93624 -23.807396,41.31433 0,0.072 3.17731,0.13097 7.060688,0.13097 5.393572,0 7.285229,-0.11725 8.011649,-0.49683 1.225731,-0.64036 2.856193,-2.85896 6.053249,-8.23663 1.41627,-2.3823 2.69983,-4.20473 2.85235,-4.04985 0.29367,0.29823 29.12346,48.12676 32.16593,53.36318 0.98259,1.69113 1.89719,3.07777 2.03247,3.0814 0.13526,0.003 1.7633,-2.52959 3.61784,-5.62937 z"
       id="path9302"
       inkscape:connector-curvature="0" />
  </g>
</svg>
