<?xml version="1.0" encoding="UTF-8" standalone="no"?>
<svg
   xmlns:dc="http://purl.org/dc/elements/1.1/"
   xmlns:cc="http://creativecommons.org/ns#"
   xmlns:rdf="http://www.w3.org/1999/02/22-rdf-syntax-ns#"
   xmlns:svg="http://www.w3.org/2000/svg"
   xmlns="http://www.w3.org/2000/svg"
   xmlns:sodipodi="http://sodipodi.sourceforge.net/DTD/sodipodi-0.dtd"
   xmlns:inkscape="http://www.inkscape.org/namespaces/inkscape"
   width="297mm"
   height="297mm"
   viewBox="0 0 297 297"
   version="1.1"
   id="svg8"
   inkscape:version="1.0.1 (3bc2e813f5, 2020-09-07)"
   sodipodi:docname="mormon.svg"
   inkscape:export-filename="/home/vanessakindell/Projects/secret-cipher/mormon/favicon.png"
   inkscape:export-xdpi="96"
   inkscape:export-ydpi="96">
  <defs
     id="defs2" />
  <sodipodi:namedview
     id="base"
     pagecolor="#ffffff"
     bordercolor="#666666"
     borderopacity="1.0"
     inkscape:pageopacity="0.0"
     inkscape:pageshadow="2"
     inkscape:zoom="0.49497475"
     inkscape:cx="322.31445"
     inkscape:cy="604.22802"
     inkscape:document-units="mm"
     inkscape:current-layer="layer1"
     inkscape:document-rotation="0"
     showgrid="false"
     inkscape:window-width="1920"
     inkscape:window-height="1043"
     inkscape:window-x="0"
     inkscape:window-y="0"
     inkscape:window-maximized="1" />
  <metadata
     id="metadata5">
    <rdf:RDF>
      <cc:Work
         rdf:about="">
        <dc:format>image/svg+xml</dc:format>
        <dc:type
           rdf:resource="http://purl.org/dc/dcmitype/StillImage" />
        <dc:title />
      </cc:Work>
    </rdf:RDF>
  </metadata>
  <g
     inkscape:label="Layer 1"
     inkscape:groupmode="layer"
     id="layer1">
    <path
       style="fill:#000000;stroke-width:0.127"
       id="path919"
       d="" />
    <path
       style="fill:#000000;stroke-width:0.939833"
       d="M 132.86023,284.01097 C 102.3916,279.76332 78.65938,269.30083 57.504355,250.78988 37.280689,233.09395 23.22028,208.44923 18.584116,182.57097 16.815665,172.70037 16.621916,155.46661 18.165992,145.40538 20.394419,130.88632 28.193029,110.86987 36.220601,99.065018 44.136989,87.423784 55.809027,75.1111 65.09235,68.608903 c 1.202057,-0.842005 2.033503,-1.881591 1.847667,-2.310098 -0.185713,-0.428717 -3.525175,-3.829049 -7.420688,-7.556769 l -7.082578,-6.777498 -11.589619,0.582928 -11.58989,0.582757 0.671443,-2.263717 c 1.497755,-5.051431 5.426903,-12.696414 9.353406,-18.198834 3.871587,-5.425798 18.637632,-20.248277 20.17092,-20.248277 0.375949,0 1.408437,5.603719 2.294617,12.452756 l 1.611126,12.452758 9.783302,9.800907 9.783404,9.800989 6.492697,-2.992717 C 111.83665,43.600704 136.22647,39.315559 160.25805,41.487984 c 34.33738,3.103958 62.07945,15.824044 84.92105,38.937172 17.87116,18.083636 27.92167,36.351574 33.012,60.002994 2.03006,9.43214 2.28504,33.73311 0.45127,42.99906 -2.97783,15.04605 -9.25518,30.25774 -18.05165,43.74371 -6.05455,9.28238 -24.15728,27.4743 -33.48933,33.65457 -16.40852,10.86633 -35.60619,18.63275 -53.82826,21.77601 -10.71741,1.84871 -31.95082,2.58934 -40.41277,1.40972 z m -13.34988,-16.93648 c 0.36346,-3.11292 -2.70783,-5.86994 -8.73617,-7.83977 -7.90032,-2.58146 -14.301563,-6.85486 -18.741143,-12.51129 -7.063586,-8.99986 -9.681768,-15.35841 -11.340241,-27.54123 -0.809385,-5.94455 -1.668416,-11.73127 -1.9091,-12.85954 -0.264766,-1.23955 -3.48639,-4.19969 -8.143518,-7.48181 -17.043809,-12.011 -21.424899,-16.86792 -21.424899,-23.7522 0,-7.89945 8.346191,-26.68133 28.509932,-64.15611 6.029529,-11.206367 10.962893,-21.208481 10.962893,-22.226803 0,-1.554062 -10.836073,-13.242613 -13.007689,-14.031198 -0.368324,-0.134156 -4.08849,2.491523 -8.26633,5.834348 -20.322116,16.259672 -34.821447,41.045973 -38.898834,66.497243 -1.638677,10.22825 -0.734914,31.09762 1.750179,40.40791 8.529723,31.95892 29.402839,57.15078 60.135728,72.57794 7.677206,3.85374 25.241892,10.06304 27.421872,9.6938 0.77523,-0.13018 1.53465,-1.30642 1.68732,-2.61129 z M 253.85454,208.7774 C 274.03142,168.6235 265.76875,120.83965 232.97846,88.049395 201.78514,56.856124 154.05436,45.144968 110.17408,57.918154 c -9.29258,2.705115 -18.666462,6.644061 -18.666462,7.843922 0,0.448896 1.225779,1.989977 2.723989,3.425241 2.325116,2.227679 3.018622,2.451909 4.736844,1.53234 2.623449,-1.403917 6.444909,0.886667 12.944419,7.758875 5.35662,5.663925 7.21993,8.851417 8.76815,14.999774 0.90814,3.606855 2.66104,5.838095 11.18686,14.239444 7.71857,7.60604 10.69873,9.96257 12.59987,9.96257 2.11672,0 2.48992,-0.40521 2.48992,-2.70552 0,-3.03446 2.07875,-4.22484 9.31419,-5.33383 5.26367,-0.80683 7.87247,-3.40914 11.50332,-11.474674 5.06831,-11.258993 4.4926,-10.562042 8.71108,-10.546681 15.36923,0.06162 33.41857,10.18554 39.32821,22.072195 5.22989,10.51941 7.02988,28.98119 4.11272,42.18204 -1.57683,7.1359 -3.57507,9.82175 -11.10483,14.92592 -6.92617,4.69502 -6.18449,7.58525 3.30883,12.89639 7.4153,4.1484 18.02924,12.69717 23.43052,18.87154 4.60712,5.2668 11.01815,16.43001 11.01815,19.18539 0,3.52909 2.60873,0.31042 7.27468,-8.97569 z m -100.318,-44.6664 c 0,-0.30848 -2.45396,-3.23877 -5.45335,-6.51204 -2.99935,-3.27325 -6.64243,-8.13628 -8.09589,-10.80678 -2.56045,-4.70445 -2.59777,-4.96953 -1.19822,-8.53248 l 1.4445,-3.67729 -12.30508,-11.03562 -12.30477,-11.03556 -6.18406,-0.0558 c -3.40131,-0.004 -7.07718,-0.37977 -8.16874,-0.78051 -1.849488,-0.6778 -2.030306,-0.32244 -2.654919,5.22248 -1.105148,9.80966 -4.180979,23.84742 -7.199022,32.85564 -1.562061,4.66255 -2.709399,9.60894 -2.549639,10.99204 l 0.289732,2.51465 19.266548,0.49992 c 32.30904,0.83744 45.1119,0.93665 45.1119,0.34935 z"
       id="path987" />
  </g>
</svg>
