<?xml version="1.0" encoding="UTF-8"?>
<!-- Created with Inkscape (http://www.inkscape.org/) -->
<svg width="165" height="161" version="1.1" xmlns="http://www.w3.org/2000/svg" xmlns:cc="http://creativecommons.org/ns#" xmlns:dc="http://purl.org/dc/elements/1.1/" xmlns:rdf="http://www.w3.org/1999/02/22-rdf-syntax-ns#">
 <metadata>
  <rdf:RDF>
   <cc:Work rdf:about="">
    <dc:format>image/svg+xml</dc:format>
    <dc:type rdf:resource="http://purl.org/dc/dcmitype/StillImage"/>
    <dc:title/>
   </cc:Work>
  </rdf:RDF>
 </metadata>
 <path d="m149.35 33.06a69.492 67.904 0 0 1 2.349 17.367 69.492 67.904 0 0 1-69.491 67.904 69.492 67.904 0 0 1-69.493-67.904 69.492 67.904 0 0 1 2.1225-16.309 81.567 80.566 0 0 0-13.905 44.938 81.567 80.566 0 0 0 81.566 80.567 81.567 80.566 0 0 0 81.568-80.567 81.567 80.566 0 0 0-14.717-45.996z" stroke="#000" stroke-width="1.8654"/>
 <g transform="matrix(.99974 0 0 1 -109.27 -128.19)" stroke="#000">
  <path d="m192 230.1-6.3669-33.926 6.3669-14.141z" stroke-linecap="round" stroke-linejoin="round" stroke-miterlimit="5.6343"/>
  <path d="m192.5 230.14 6.3669-33.926-6.3669-14.141z" stroke-linecap="round" stroke-linejoin="round" stroke-miterlimit="5.6343"/>
  <ellipse transform="translate(2.0531 -.0051903)" cx="190.2" cy="230.94" rx="3.3567" ry="3.4084" stroke-width="2.033"/>
  <g transform="matrix(1 0 0 -1 -.029752 363.65)">
   <path d="m192 230.1-6.3669-33.926 6.3669-14.141z" stroke-linecap="round" stroke-linejoin="round" stroke-miterlimit="5.6343"/>
   <path d="m192.5 230.14 6.3669-33.926-6.3669-14.141z" stroke-linecap="round" stroke-linejoin="round" stroke-miterlimit="5.6343"/>
   <ellipse transform="translate(2.0531 -.0051903)" cx="190.2" cy="230.94" rx="3.3567" ry="3.4084" stroke-width="2.033"/>
  </g>
  <g transform="rotate(90 192.32 181.94)">
   <path d="m192 230.1-6.3669-33.926 6.3669-14.141z" stroke-linecap="round" stroke-linejoin="round" stroke-miterlimit="5.6343"/>
   <path d="m192.5 230.14 6.3669-33.926-6.3669-14.141z" stroke-linecap="round" stroke-linejoin="round" stroke-miterlimit="5.6343"/>
   <ellipse transform="translate(2.0531 -.0051903)" cx="190.2" cy="230.94" rx="3.3567" ry="3.4084" stroke-width="2.033"/>
   <g transform="matrix(1 0 0 -1 -.029752 363.65)">
    <path d="m192 230.1-6.3669-33.926 6.3669-14.141z" stroke-linecap="round" stroke-linejoin="round" stroke-miterlimit="5.6343"/>
    <path d="m192.5 230.14 6.3669-33.926-6.3669-14.141z" stroke-linecap="round" stroke-linejoin="round" stroke-miterlimit="5.6343"/>
    <ellipse transform="translate(2.0531 -.0051903)" cx="190.2" cy="230.94" rx="3.3567" ry="3.4084" stroke-width="2.033"/>
   </g>
  </g>
 </g>
 <g transform="matrix(.70692 -.70711 .70692 .70711 -180.65 61.762)" stroke="#000">
  <path d="m192 230.1-6.3669-33.926 6.3669-14.141z" stroke-linecap="round" stroke-linejoin="round" stroke-miterlimit="5.6343"/>
  <path d="m192.5 230.14 6.3669-33.926-6.3669-14.141z" stroke-linecap="round" stroke-linejoin="round" stroke-miterlimit="5.6343"/>
  <ellipse transform="translate(2.0531 -.0051903)" cx="190.2" cy="230.94" rx="3.3567" ry="3.4084" stroke-width="2.033"/>
  <g transform="matrix(1 0 0 -1 -.029752 363.65)">
   <path d="m192 230.1-6.3669-33.926 6.3669-14.141z" stroke-linecap="round" stroke-linejoin="round" stroke-miterlimit="5.6343"/>
   <path d="m192.5 230.14 6.3669-33.926-6.3669-14.141z" stroke-linecap="round" stroke-linejoin="round" stroke-miterlimit="5.6343"/>
   <ellipse transform="translate(2.0531 -.0051903)" cx="190.2" cy="230.94" rx="3.3567" ry="3.4084" stroke-width="2.033"/>
  </g>
  <g transform="rotate(90 192.32 181.94)">
   <path d="m192 230.1-6.3669-33.926 6.3669-14.141z" stroke-linecap="round" stroke-linejoin="round" stroke-miterlimit="5.6343"/>
   <path d="m192.5 230.14 6.3669-33.926-6.3669-14.141z" stroke-linecap="round" stroke-linejoin="round" stroke-miterlimit="5.6343"/>
   <ellipse transform="translate(2.0531 -.0051903)" cx="190.2" cy="230.94" rx="3.3567" ry="3.4084" stroke-width="2.033"/>
   <g transform="matrix(1 0 0 -1 -.029752 363.65)">
    <path d="m192 230.1-6.3669-33.926 6.3669-14.141z" stroke-linecap="round" stroke-linejoin="round" stroke-miterlimit="5.6343"/>
    <path d="m192.5 230.14 6.3669-33.926-6.3669-14.141z" stroke-linecap="round" stroke-linejoin="round" stroke-miterlimit="5.6343"/>
    <ellipse transform="translate(2.0531 -.0051903)" cx="190.2" cy="230.94" rx="3.3567" ry="3.4084" stroke-width="2.033"/>
   </g>
  </g>
 </g>
</svg>